<?xml version="1.0" encoding="UTF-8"?>
<svg width="539px" height="443px" viewBox="0 0 539 443" version="1.1" xmlns="http://www.w3.org/2000/svg" xmlns:xlink="http://www.w3.org/1999/xlink">
    <!-- Generator: Sketch 52.2 (67145) - http://www.bohemiancoding.com/sketch -->
    <title>Group 11</title>
    <desc>Created with Sketch.</desc>
    <defs>
        <polygon id="path-1" points="0.234963514 0.212659459 195.347166 0.212659459 195.347166 155.331081 0.234963514 155.331081"></polygon>
        <polygon id="path-3" points="0 237 236 237 236 0.241003378 0 0.241003378"></polygon>
        <polygon id="path-5" points="0.119472973 0.107223257 99.3290676 0.107223257 99.3290676 78.3181921 0.119472973 78.3181921"></polygon>
        <polygon id="path-7" points="0 119.495798 120 119.495798 120 0.121514308 0 0.121514308"></polygon>
        <polygon id="path-9" points="0.119472973 0.107223257 99.3290676 0.107223257 99.3290676 78.3181921 0.119472973 78.3181921"></polygon>
        <polygon id="path-11" points="0 119.495798 120 119.495798 120 0.121514308 0 0.121514308"></polygon>
        <polygon id="path-13" points="0.119472973 0.107223257 99.3290676 0.107223257 99.3290676 78.3181921 0.119472973 78.3181921"></polygon>
        <polygon id="path-15" points="0 119.495798 120 119.495798 120 0.121514308 0 0.121514308"></polygon>
        <linearGradient x1="50%" y1="0%" x2="50%" y2="100%" id="linearGradient-17">
            <stop stop-color="#FFFFFF" stop-opacity="0.8" offset="0%"></stop>
            <stop stop-color="#FFFFFF" stop-opacity="0.4" offset="5%"></stop>
            <stop stop-color="#FFFFFF" stop-opacity="0" offset="20%"></stop>
            <stop stop-color="#FFFFFF" stop-opacity="0" offset="100%"></stop>
        </linearGradient>
        <linearGradient x1="50%" y1="0%" x2="50%" y2="100%" id="linearGradient-18">
            <stop stop-color="#000000" stop-opacity="0" offset="0%"></stop>
            <stop stop-color="#000000" stop-opacity="0" offset="80%"></stop>
            <stop stop-color="#000000" stop-opacity="0.02" offset="95.0255322%"></stop>
            <stop stop-color="#000000" stop-opacity="0.04" offset="100%"></stop>
        </linearGradient>
        <circle id="path-19" cx="163" cy="231" r="33"></circle>
        <filter x="-6.1%" y="-6.1%" width="112.1%" height="115.2%" filterUnits="objectBoundingBox" id="filter-20">
            <feOffset dx="0" dy="2" in="SourceAlpha" result="shadowOffsetOuter1"></feOffset>
            <feGaussianBlur stdDeviation="1" in="shadowOffsetOuter1" result="shadowBlurOuter1"></feGaussianBlur>
            <feComposite in="shadowBlurOuter1" in2="SourceAlpha" operator="out" result="shadowBlurOuter1"></feComposite>
            <feColorMatrix values="0 0 0 0 0   0 0 0 0 0   0 0 0 0 0  0 0 0 0.24 0" type="matrix" in="shadowBlurOuter1" result="shadowMatrixOuter1"></feColorMatrix>
            <feOffset dx="0" dy="0" in="SourceAlpha" result="shadowOffsetOuter2"></feOffset>
            <feGaussianBlur stdDeviation="1" in="shadowOffsetOuter2" result="shadowBlurOuter2"></feGaussianBlur>
            <feComposite in="shadowBlurOuter2" in2="SourceAlpha" operator="out" result="shadowBlurOuter2"></feComposite>
            <feColorMatrix values="0 0 0 0 0   0 0 0 0 0   0 0 0 0 0  0 0 0 0.12 0" type="matrix" in="shadowBlurOuter2" result="shadowMatrixOuter2"></feColorMatrix>
            <feMerge>
                <feMergeNode in="shadowMatrixOuter1"></feMergeNode>
                <feMergeNode in="shadowMatrixOuter2"></feMergeNode>
            </feMerge>
        </filter>
    </defs>
    <g id="Home-page-public" stroke="none" stroke-width="1" fill="none" fill-rule="evenodd">
        <g id="password" transform="translate(-743.000000, -168.000000)">
            <g id="Group-11" transform="translate(743.000000, 161.000000)">
                <g id="Group-7">
                    <g id="Group-42">
                        <g id="Group-6" transform="translate(0.000000, 213.000000)">
                            <g id="Group-14">
                                <g id="Group-3" transform="translate(11.959459, 81.668919)">
                                    <mask id="mask-2" fill="white">
                                        <use xlink:href="#path-1"></use>
                                    </mask>
                                    <g id="Clip-2"></g>
                                    <path d="M179.086686,0.212659459 L16.4958419,0.212659459 C7.51667973,0.212659459 0.234963514,7.52362905 0.234963514,16.5404382 L0.234963514,155.331161 L195.347166,155.331161 L195.347166,16.5404382 C195.347166,7.52362905 188.067045,0.212659459 179.086686,0.212659459" id="Fill-1" fill="#FFFFFF" mask="url(#mask-2)"></path>
                                </g>
                                <path d="M191.046146,228.83527 L191.046146,106.373927 C191.046146,101.863721 187.410072,98.2090368 182.917301,98.2090368 L36.5841459,98.2090368 C32.0913757,98.2090368 28.4553014,101.863721 28.4553014,106.373927 L28.4553014,228.83527 L191.046146,228.83527 Z" id="Fill-4" fill="#4297CF"></path>
                                <path d="M191.046146,228.83527 L191.046146,106.373927 C191.046146,101.863721 187.410072,98.2090368 182.917301,98.2090368 L174.788855,98.2090368 L44.7141865,228.83527 L191.046146,228.83527 Z" id="Fill-6" fill="#3D8AC7"></path>
                                <mask id="mask-4" fill="white">
                                    <use xlink:href="#path-3"></use>
                                </mask>
                                <g id="Clip-9"></g>
                                <polygon id="Fill-8" fill="#85CCD9" mask="url(#mask-4)" points="52.8444662 179.850172 166.658655 179.850172 166.658655 147.194615 52.8444662 147.194615"></polygon>
                                <polygon id="Fill-10" fill="#115E99" mask="url(#mask-4)" points="65.0375338 167.60584 73.1663784 167.60584 73.1663784 159.442551 65.0375338 159.442551"></polygon>
                                <polygon id="Fill-11" fill="#115E99" mask="url(#mask-4)" points="81.2964189 167.60584 89.4268581 167.60584 89.4268581 159.442551 81.2964189 159.442551"></polygon>
                                <polygon id="Fill-12" fill="#115E99" mask="url(#mask-4)" points="97.5568986 167.60584 105.685743 167.60584 105.685743 159.442551 97.5568986 159.442551"></polygon>
                                <polygon id="Fill-13" fill="#115E99" mask="url(#mask-4)" points="113.815784 167.60584 121.946622 167.60584 121.946622 159.442551 113.815784 159.442551"></polygon>
                            </g>
                            <g id="Group-32" transform="translate(0.000000, 13.000000)">
                                <polygon id="Fill-29" fill="#85CCD9" points="118.343784 8.21972193 126.464702 8.21972193 126.464702 0.0762638146 118.343784 0.0762638146"></polygon>
                                <path d="M12.7819611,223.99996 C6.05467927,223.99996 0.601977455,218.533322 0.601977455,211.785771 L0.601977455,199.571582 L85.8638538,199.571582 C88.6447556,199.571582 91.1895356,201.147169 92.4326593,203.642712 C93.6753847,206.140252 96.2217575,207.71504 99.0026593,207.71504 L122.404999,207.71504 C125.185901,207.71504 127.730681,206.140252 128.973407,203.642712 C130.216132,201.147169 132.762505,199.571582 135.543407,199.571582 L219.846063,199.571582 L219.846063,211.785771 C219.846063,218.533322 214.392963,223.99996 207.665681,223.99996 L12.7819611,223.99996 Z" id="Fill-31" fill="#FFFFFF"></path>
                            </g>
                        </g>
                        <g id="Group-6" transform="translate(427.000000, 0.000000)">
                            <g id="Group-14">
                                <g id="Group-3" transform="translate(6.081081, 41.177606)">
                                    <mask id="mask-6" fill="white">
                                        <use xlink:href="#path-5"></use>
                                    </mask>
                                    <g id="Clip-2"></g>
                                    <path d="M91.061027,0.107223257 L8.38771622,0.107223257 C3.82204054,0.107223257 0.119472973,3.79342641 0.119472973,8.33971673 L0.119472973,78.3182325 L99.3290676,78.3182325 L99.3290676,8.33971673 C99.3290676,3.79342641 95.6273108,0.107223257 91.061027,0.107223257" id="Fill-1" fill="#FFFFFF" mask="url(#mask-6)"></path>
                                </g>
                                <path d="M97.1421081,115.379128 L97.1421081,53.6339128 C97.1421081,51.3598593 95.2932568,49.5171614 93.0087973,49.5171614 L18.6021081,49.5171614 C16.3176486,49.5171614 14.4687973,51.3598593 14.4687973,53.6339128 L14.4687973,115.379128 L97.1421081,115.379128 Z" id="Fill-4" fill="#4297CF"></path>
                                <path d="M97.1421081,115.379128 L97.1421081,53.6339128 C97.1421081,51.3598593 95.2932568,49.5171614 93.0087973,49.5171614 L88.8756892,49.5171614 L22.736027,115.379128 L97.1421081,115.379128 Z" id="Fill-6" fill="#3D8AC7"></path>
                                <mask id="mask-8" fill="white">
                                    <use xlink:href="#path-7"></use>
                                </mask>
                                <g id="Clip-9"></g>
                                <polygon id="Fill-8" fill="#85CCD9" mask="url(#mask-8)" points="26.8700676 90.6807591 84.7416892 90.6807591 84.7416892 74.2157722 26.8700676 74.2157722"></polygon>
                                <polygon id="Fill-10" fill="#115E99" mask="url(#mask-8)" points="33.0699324 84.507146 37.2032432 84.507146 37.2032432 80.391202 33.0699324 80.391202"></polygon>
                                <polygon id="Fill-11" fill="#115E99" mask="url(#mask-8)" points="41.3371622 84.507146 45.4712838 84.507146 45.4712838 80.391202 41.3371622 80.391202"></polygon>
                                <polygon id="Fill-12" fill="#115E99" mask="url(#mask-8)" points="49.6052027 84.507146 53.7385135 84.507146 53.7385135 80.391202 49.6052027 80.391202"></polygon>
                                <polygon id="Fill-13" fill="#115E99" mask="url(#mask-8)" points="57.8724324 84.507146 62.0067568 84.507146 62.0067568 80.391202 57.8724324 80.391202"></polygon>
                            </g>
                            <g id="Group-32" transform="translate(0.000000, 7.000000)">
                                <polygon id="Fill-29" fill="#85CCD9" points="60.2477444 4.14655615 64.38203 4.14655615 64.38203 0.0384723708 60.2477444 0.0384723708"></polygon>
                                <path d="M6.50718019,112.99998 C3.08238218,112.99998 0.30646125,110.242256 0.30646125,106.838358 L0.30646125,100.676736 L43.7125074,100.676736 C45.1282392,100.676736 46.4237636,101.471563 47.0566265,102.730475 C47.6892868,103.990395 48.985622,104.784819 50.4013538,104.784819 L62.3152724,104.784819 C63.7310042,104.784819 65.0265286,103.990395 65.6591888,102.730475 C66.291849,101.471563 67.5881842,100.676736 69.0039161,100.676736 L111.921632,100.676736 L111.921632,106.838358 C111.921632,110.242256 109.145508,112.99998 105.72071,112.99998 L6.50718019,112.99998 Z" id="Fill-31" fill="#FFFFFF"></path>
                            </g>
                        </g>
                        <g id="Group-6-Copy" transform="translate(427.000000, 152.000000)">
                            <g id="Group-14">
                                <g id="Group-3" transform="translate(6.081081, 41.177606)">
                                    <mask id="mask-10" fill="white">
                                        <use xlink:href="#path-9"></use>
                                    </mask>
                                    <g id="Clip-2"></g>
                                    <path d="M91.061027,0.107223257 L8.38771622,0.107223257 C3.82204054,0.107223257 0.119472973,3.79342641 0.119472973,8.33971673 L0.119472973,78.3182325 L99.3290676,78.3182325 L99.3290676,8.33971673 C99.3290676,3.79342641 95.6273108,0.107223257 91.061027,0.107223257" id="Fill-1" fill="#FFFFFF" mask="url(#mask-10)"></path>
                                </g>
                                <path d="M97.1421081,115.379128 L97.1421081,53.6339128 C97.1421081,51.3598593 95.2932568,49.5171614 93.0087973,49.5171614 L18.6021081,49.5171614 C16.3176486,49.5171614 14.4687973,51.3598593 14.4687973,53.6339128 L14.4687973,115.379128 L97.1421081,115.379128 Z" id="Fill-4" fill="#4297CF"></path>
                                <path d="M97.1421081,115.379128 L97.1421081,53.6339128 C97.1421081,51.3598593 95.2932568,49.5171614 93.0087973,49.5171614 L88.8756892,49.5171614 L22.736027,115.379128 L97.1421081,115.379128 Z" id="Fill-6" fill="#3D8AC7"></path>
                                <mask id="mask-12" fill="white">
                                    <use xlink:href="#path-11"></use>
                                </mask>
                                <g id="Clip-9"></g>
                                <polygon id="Fill-8" fill="#85CCD9" mask="url(#mask-12)" points="26.8700676 90.6807591 84.7416892 90.6807591 84.7416892 74.2157722 26.8700676 74.2157722"></polygon>
                                <polygon id="Fill-10" fill="#115E99" mask="url(#mask-12)" points="33.0699324 84.507146 37.2032432 84.507146 37.2032432 80.391202 33.0699324 80.391202"></polygon>
                                <polygon id="Fill-11" fill="#115E99" mask="url(#mask-12)" points="41.3371622 84.507146 45.4712838 84.507146 45.4712838 80.391202 41.3371622 80.391202"></polygon>
                                <polygon id="Fill-12" fill="#115E99" mask="url(#mask-12)" points="49.6052027 84.507146 53.7385135 84.507146 53.7385135 80.391202 49.6052027 80.391202"></polygon>
                                <polygon id="Fill-13" fill="#115E99" mask="url(#mask-12)" points="57.8724324 84.507146 62.0067568 84.507146 62.0067568 80.391202 57.8724324 80.391202"></polygon>
                            </g>
                            <g id="Group-32" transform="translate(0.000000, 7.000000)">
                                <polygon id="Fill-29" fill="#85CCD9" points="60.2477444 4.14655615 64.38203 4.14655615 64.38203 0.0384723708 60.2477444 0.0384723708"></polygon>
                                <path d="M6.50718019,112.99998 C3.08238218,112.99998 0.30646125,110.242256 0.30646125,106.838358 L0.30646125,100.676736 L43.7125074,100.676736 C45.1282392,100.676736 46.4237636,101.471563 47.0566265,102.730475 C47.6892868,103.990395 48.985622,104.784819 50.4013538,104.784819 L62.3152724,104.784819 C63.7310042,104.784819 65.0265286,103.990395 65.6591888,102.730475 C66.291849,101.471563 67.5881842,100.676736 69.0039161,100.676736 L111.921632,100.676736 L111.921632,106.838358 C111.921632,110.242256 109.145508,112.99998 105.72071,112.99998 L6.50718019,112.99998 Z" id="Fill-31" fill="#FFFFFF"></path>
                            </g>
                        </g>
                        <g id="Group-6-Copy-2" transform="translate(422.000000, 285.000000)">
                            <g id="Group-14">
                                <g id="Group-3" transform="translate(6.081081, 41.177606)">
                                    <mask id="mask-14" fill="white">
                                        <use xlink:href="#path-13"></use>
                                    </mask>
                                    <g id="Clip-2"></g>
                                    <path d="M91.061027,0.107223257 L8.38771622,0.107223257 C3.82204054,0.107223257 0.119472973,3.79342641 0.119472973,8.33971673 L0.119472973,78.3182325 L99.3290676,78.3182325 L99.3290676,8.33971673 C99.3290676,3.79342641 95.6273108,0.107223257 91.061027,0.107223257" id="Fill-1" fill="#FFFFFF" mask="url(#mask-14)"></path>
                                </g>
                                <path d="M97.1421081,115.379128 L97.1421081,53.6339128 C97.1421081,51.3598593 95.2932568,49.5171614 93.0087973,49.5171614 L18.6021081,49.5171614 C16.3176486,49.5171614 14.4687973,51.3598593 14.4687973,53.6339128 L14.4687973,115.379128 L97.1421081,115.379128 Z" id="Fill-4" fill="#4297CF"></path>
                                <path d="M97.1421081,115.379128 L97.1421081,53.6339128 C97.1421081,51.3598593 95.2932568,49.5171614 93.0087973,49.5171614 L88.8756892,49.5171614 L22.736027,115.379128 L97.1421081,115.379128 Z" id="Fill-6" fill="#3D8AC7"></path>
                                <mask id="mask-16" fill="white">
                                    <use xlink:href="#path-15"></use>
                                </mask>
                                <g id="Clip-9"></g>
                                <polygon id="Fill-8" fill="#85CCD9" mask="url(#mask-16)" points="26.8700676 90.6807591 84.7416892 90.6807591 84.7416892 74.2157722 26.8700676 74.2157722"></polygon>
                                <polygon id="Fill-10" fill="#115E99" mask="url(#mask-16)" points="33.0699324 84.507146 37.2032432 84.507146 37.2032432 80.391202 33.0699324 80.391202"></polygon>
                                <polygon id="Fill-11" fill="#115E99" mask="url(#mask-16)" points="41.3371622 84.507146 45.4712838 84.507146 45.4712838 80.391202 41.3371622 80.391202"></polygon>
                                <polygon id="Fill-12" fill="#115E99" mask="url(#mask-16)" points="49.6052027 84.507146 53.7385135 84.507146 53.7385135 80.391202 49.6052027 80.391202"></polygon>
                                <polygon id="Fill-13" fill="#115E99" mask="url(#mask-16)" points="57.8724324 84.507146 62.0067568 84.507146 62.0067568 80.391202 57.8724324 80.391202"></polygon>
                            </g>
                            <g id="Group-32" transform="translate(0.000000, 7.000000)">
                                <polygon id="Fill-29" fill="#85CCD9" points="60.2477444 4.14655615 64.38203 4.14655615 64.38203 0.0384723708 60.2477444 0.0384723708"></polygon>
                                <path d="M6.50718019,112.99998 C3.08238218,112.99998 0.30646125,110.242256 0.30646125,106.838358 L0.30646125,100.676736 L43.7125074,100.676736 C45.1282392,100.676736 46.4237636,101.471563 47.0566265,102.730475 C47.6892868,103.990395 48.985622,104.784819 50.4013538,104.784819 L62.3152724,104.784819 C63.7310042,104.784819 65.0265286,103.990395 65.6591888,102.730475 C66.291849,101.471563 67.5881842,100.676736 69.0039161,100.676736 L111.921632,100.676736 L111.921632,106.838358 C111.921632,110.242256 109.145508,112.99998 105.72071,112.99998 L6.50718019,112.99998 Z" id="Fill-31" fill="#FFFFFF"></path>
                            </g>
                        </g>
                        <g id="Group-28" transform="translate(102.000000, 226.000000)" fill="#85CCD9">
                            <polygon id="Fill-21" points="0.135339806 56.9768811 8.25373786 56.9768811 8.25373786 48.8474056 0.135339806 48.8474056"></polygon>
                            <polygon id="Fill-23" points="0.135339806 40.7199231 8.25373786 40.7199231 8.25373786 32.592042 0.135339806 32.592042"></polygon>
                            <polygon id="Fill-24" points="0.135339806 24.462965 8.25373786 24.462965 8.25373786 16.3334895 0.135339806 16.3334895"></polygon>
                            <polygon id="Fill-25" points="0.135339806 8.20560839 8.25373786 8.20560839 8.25373786 0.0761328671 0.135339806 0.0761328671"></polygon>
                            <polygon id="Fill-26" points="16.3717379 8.20560839 24.4885437 8.20560839 24.4885437 0.0761328671 16.3717379 0.0761328671"></polygon>
                            <polygon id="Fill-27" points="32.6065437 8.20560839 40.7249417 8.20560839 40.7249417 0.0761328671 32.6065437 0.0761328671"></polygon>
                            <polygon id="Fill-25" points="90.1353398 8.20560839 98.2537379 8.20560839 98.2537379 0.0761328671 90.1353398 0.0761328671"></polygon>
                            <polygon id="Fill-26" points="106.371738 8.20560839 114.488544 8.20560839 114.488544 0.0761328671 106.371738 0.0761328671"></polygon>
                            <polygon id="Fill-27" points="122.606544 8.20560839 130.724942 8.20560839 130.724942 0.0761328671 122.606544 0.0761328671"></polygon>
                            <polygon id="Fill-25" points="139.13534 8.20560839 147.253738 8.20560839 147.253738 0.0761328671 139.13534 0.0761328671"></polygon>
                            <polygon id="Fill-26" points="155.371738 8.20560839 163.488544 8.20560839 163.488544 0.0761328671 155.371738 0.0761328671"></polygon>
                            <polygon id="Fill-27" points="171.606544 8.20560839 179.724942 8.20560839 179.724942 0.0761328671 171.606544 0.0761328671"></polygon>
                            <polygon id="Fill-25" points="190.13534 8.20560839 198.253738 8.20560839 198.253738 0.0761328671 190.13534 0.0761328671"></polygon>
                            <polygon id="Fill-26" points="206.371738 8.20560839 214.488544 8.20560839 214.488544 0.0761328671 206.371738 0.0761328671"></polygon>
                            <polygon id="Fill-27" points="222.606544 8.20560839 230.724942 8.20560839 230.724942 0.0761328671 222.606544 0.0761328671"></polygon>
                        </g>
                        <g id="Group-28" transform="translate(382.734375, 218.316406) rotate(-90.000000) translate(-382.734375, -218.316406) translate(244.234375, 175.816406)" fill="#85CCD9">
                            <polygon id="Fill-21" points="0.135339806 56.9768811 8.25373786 56.9768811 8.25373786 48.8474056 0.135339806 48.8474056"></polygon>
                            <polygon id="Fill-21" points="0.135339806 72.9768811 8.25373786 72.9768811 8.25373786 64.8474056 0.135339806 64.8474056"></polygon>
                            <polygon id="Fill-23" points="0.135339806 40.7199231 8.25373786 40.7199231 8.25373786 32.592042 0.135339806 32.592042"></polygon>
                            <polygon id="Fill-24" points="0.135339806 24.462965 8.25373786 24.462965 8.25373786 16.3334895 0.135339806 16.3334895"></polygon>
                            <polygon id="Fill-25" points="0.135339806 8.20560839 8.25373786 8.20560839 8.25373786 0.0761328671 0.135339806 0.0761328671"></polygon>
                            <polygon id="Fill-26" points="16.3717379 8.20560839 24.4885437 8.20560839 24.4885437 0.0761328671 16.3717379 0.0761328671"></polygon>
                            <polygon id="Fill-27" points="32.6065437 8.20560839 40.7249417 8.20560839 40.7249417 0.0761328671 32.6065437 0.0761328671"></polygon>
                            <polygon id="Fill-25" points="75.6065437 8.67681228 83.7249417 8.67681228 83.7249417 0.547336751 75.6065437 0.547336751"></polygon>
                            <polygon id="Fill-26" points="62.6065437 8.44041422 70.7233495 8.44041422 70.7233495 0.310938692 62.6065437 0.310938692"></polygon>
                            <polygon id="Fill-27" points="47.6065437 8.20560839 55.7249417 8.20560839 55.7249417 0.0761328671 47.6065437 0.0761328671"></polygon>
                            <polygon id="Fill-25" points="90.1353398 8.20560839 98.2537379 8.20560839 98.2537379 0.0761328671 90.1353398 0.0761328671"></polygon>
                            <polygon id="Fill-26" points="106.371738 8.20560839 114.488544 8.20560839 114.488544 0.0761328671 106.371738 0.0761328671"></polygon>
                            <polygon id="Fill-27" points="122.606544 8.20560839 130.724942 8.20560839 130.724942 0.0761328671 122.606544 0.0761328671"></polygon>
                            <polygon id="Fill-27" points="122.606544 8.20560839 130.724942 8.20560839 130.724942 0.0761328671 122.606544 0.0761328671"></polygon>
                            <polygon id="Fill-27" points="122.606544 22.2056084 130.724942 22.2056084 130.724942 14.0761329 122.606544 14.0761329"></polygon>
                            <polygon id="Fill-27" points="122.606544 36.2056084 130.724942 36.2056084 130.724942 28.0761329 122.606544 28.0761329"></polygon>
                            <polygon id="Fill-27" points="122.606544 53.2056084 130.724942 53.2056084 130.724942 45.0761329 122.606544 45.0761329"></polygon>
                            <polygon id="Fill-27" points="122.606544 68.2056084 130.724942 68.2056084 130.724942 60.0761329 122.606544 60.0761329"></polygon>
                            <polygon id="Fill-27" points="122.606544 83.2056084 130.724942 83.2056084 130.724942 75.0761329 122.606544 75.0761329"></polygon>
                            <polygon id="Fill-25" points="139.13534 8.20560839 147.253738 8.20560839 147.253738 0.0761328671 139.13534 0.0761328671"></polygon>
                            <polygon id="Fill-26" points="155.371738 8.20560839 163.488544 8.20560839 163.488544 0.0761328671 155.371738 0.0761328671"></polygon>
                            <polygon id="Fill-27" points="171.606544 8.20560839 179.724942 8.20560839 179.724942 0.0761328671 171.606544 0.0761328671"></polygon>
                            <polygon id="Fill-25" points="190.13534 8.20560839 198.253738 8.20560839 198.253738 0.0761328671 190.13534 0.0761328671"></polygon>
                            <polygon id="Fill-26" points="206.371738 8.20560839 214.488544 8.20560839 214.488544 0.0761328671 206.371738 0.0761328671"></polygon>
                            <polygon id="Fill-27" points="222.606544 8.20560839 230.724942 8.20560839 230.724942 0.0761328671 222.606544 0.0761328671"></polygon>
                            <polygon id="Fill-27" points="237.606544 8.20560839 245.724942 8.20560839 245.724942 0.0761328671 237.606544 0.0761328671"></polygon>
                            <polygon id="Fill-27" points="252.606544 8.20560839 260.724942 8.20560839 260.724942 0.0761328671 252.606544 0.0761328671"></polygon>
                            <polygon id="Fill-27" points="268.606544 8.20560839 276.724942 8.20560839 276.724942 0.0761328671 268.606544 0.0761328671"></polygon>
                            <polygon id="Fill-27" points="268.606544 23.2056084 276.724942 23.2056084 276.724942 15.0761329 268.606544 15.0761329"></polygon>
                            <polygon id="Fill-27" points="268.606544 38.2056084 276.724942 38.2056084 276.724942 30.0761329 268.606544 30.0761329"></polygon>
                            <polygon id="Fill-27" points="268.606544 53.2056084 276.724942 53.2056084 276.724942 45.0761329 268.606544 45.0761329"></polygon>
                            <polygon id="Fill-27" points="268.606544 69.2056084 276.724942 69.2056084 276.724942 61.0761329 268.606544 61.0761329"></polygon>
                            <polygon id="Fill-27" points="268.606544 84.2056084 276.724942 84.2056084 276.724942 76.0761329 268.606544 76.0761329"></polygon>
                        </g>
                    </g>
                    <g id="Oval">
                        <use fill="black" fill-opacity="1" filter="url(#filter-20)" xlink:href="#path-19"></use>
                        <circle stroke="url(#linearGradient-17)" stroke-width="0.5" stroke-linejoin="square" fill="#FFFFFF" fill-rule="evenodd" cx="163" cy="231" r="32.75"></circle>
                        <circle stroke="url(#linearGradient-18)" stroke-width="0.5" stroke-linejoin="square" cx="163" cy="231" r="32.75"></circle>
                    </g>
                </g>
                <g id="Group-8" transform="translate(145.000000, 213.000000)" fill-rule="nonzero" stroke="#D0021B" stroke-linecap="round" stroke-width="4">
                    <path d="M-5.5,18 L41.8886983,18" id="Line" transform="translate(18.000000, 18.000000) rotate(-315.000000) translate(-18.000000, -18.000000) "></path>
                    <path d="M-5.5,18 L41.8886983,18" id="Line" transform="translate(18.000000, 18.000000) rotate(-45.000000) translate(-18.000000, -18.000000) "></path>
                </g>
            </g>
        </g>
    </g>
</svg>